<svg xmlns="http://www.w3.org/2000/svg" width="659pt" height="1056" viewBox="0 0 658.73 792"><g class="graph"><path fill="#fff" stroke="transparent" stroke-width=".85" d="M0 795.6V0h661.725v795.6z"/><g class="node" transform="matrix(.85 0 0 .85 122.4 780.3)"><text x="162.5" y="-806.3" font-family="Times,serif" font-size="14" text-anchor="middle">∅</text></g><g class="node" transform="matrix(.85 0 0 .85 122.4 780.3)"><text x="189.5" y="-734.3" font-family="Times,serif" font-size="14" text-anchor="middle">∅</text></g><g class="node" transform="matrix(.85 0 0 .85 122.4 780.3)"><text x="216.5" y="-662.3" font-family="Times,serif" font-size="14" text-anchor="middle">∅</text></g><g class="node" transform="matrix(.85 0 0 .85 122.4 780.3)"><text x="242.5" y="-590.3" font-family="Times,serif" font-size="14" text-anchor="middle">∅</text></g><g class="node" transform="matrix(.85 0 0 .85 122.4 780.3)"><text x="269.5" y="-518.3" font-family="Times,serif" font-size="14" text-anchor="middle">∅</text></g><g class="node" transform="matrix(.85 0 0 .85 122.4 780.3)"><text x="296.5" y="-446.3" font-family="Times,serif" font-size="14" text-anchor="middle">∅</text></g><g class="node" transform="matrix(.85 0 0 .85 122.4 780.3)"><text x="268.5" y="-302.3" font-family="Times,serif" font-size="14" text-anchor="middle">∅</text></g><g class="node" transform="matrix(.85 0 0 .85 122.4 780.3)"><text x="313.5" y="-230.3" font-family="Times,serif" font-size="14" text-anchor="middle">∅</text></g><g class="node" transform="matrix(.85 0 0 .85 122.4 780.3)"><text x="358.5" y="-158.3" font-family="Times,serif" font-size="14" text-anchor="middle">∅</text></g><g class="node" transform="matrix(.85 0 0 .85 122.4 780.3)"><text x="384.5" y="-86.3" font-family="Times,serif" font-size="14" text-anchor="middle">∅</text></g><g class="node" transform="matrix(.85 0 0 .85 122.4 780.3)"><text x="410.5" y="-14.3" font-family="Times,serif" font-size="14" text-anchor="middle">∅</text></g><g class="node" transform="matrix(.85 0 0 .85 122.4 780.3)"><text x="7.5" y="-302.3" font-family="Times,serif" font-size="14" text-anchor="middle">∅</text></g><g class="node" transform="matrix(.85 0 0 .85 122.4 780.3)"><text x="169.5" y="-158.3" font-family="Times,serif" font-size="14" text-anchor="middle">∅</text></g><g class="node" transform="matrix(.85 0 0 .85 122.4 780.3)"><text x="40.5" y="-158.3" font-family="Times,serif" font-size="14" text-anchor="middle">∅</text></g><g class="node" transform="matrix(.85 0 0 .85 122.4 780.3)"><text x="67.5" y="-86.3" font-family="Times,serif" font-size="14" text-anchor="middle">∅</text></g><g class="node" transform="matrix(.85 0 0 .85 122.4 780.3)"><text x="94.5" y="-14.3" font-family="Times,serif" font-size="14" text-anchor="middle">∅</text></g><g class="node" transform="matrix(.85 0 0 .85 122.4 780.3)"><ellipse cx="188.5" cy="-882" fill="none" stroke="#000" rx="29.8" ry="18"/><text x="188.5" y="-878.3" font-family="Times,serif" font-size="14" text-anchor="middle">root</text></g><g class="edge" transform="matrix(.85 0 0 .85 122.4 780.3)"><path fill="none" stroke="#000" d="M182.21-864.05c-4.15 11.16-9.55 25.71-13.65 36.74"/><path stroke="#000" d="m171.75-825.85-6.76 8.15.2-10.59z"/></g><g class="node" transform="matrix(.85 0 0 .85 122.4 780.3)"><ellipse cx="215.5" cy="-810" fill="none" stroke="#000" rx="27" ry="18"/><text x="215.5" y="-806.3" font-family="Times,serif" font-size="14" text-anchor="middle">‘H’</text></g><g class="edge" transform="matrix(.85 0 0 .85 122.4 780.3)"><path fill="none" stroke="#000" d="m194.9-864.41 10.43 27.06"/><path stroke="#000" d="m208.63-838.55.33 10.59-6.86-8.07z"/></g><g class="edge" transform="matrix(.85 0 0 .85 122.4 780.3)"><path fill="none" stroke="#000" d="M209.34-792.41c-4.15 11.16-9.59 25.81-13.72 36.94"/><path stroke="#000" d="m198.78-753.92-6.77 8.15.2-10.59z"/></g><g class="node" transform="matrix(.85 0 0 .85 122.4 780.3)"><ellipse cx="242.5" cy="-738" fill="none" stroke="#000" rx="27" ry="18"/><text x="242.5" y="-734.3" font-family="Times,serif" font-size="14" text-anchor="middle">‘e’</text></g><g class="edge" transform="matrix(.85 0 0 .85 122.4 780.3)"><path fill="none" stroke="#000" d="m221.9-792.41 10.43 27.06"/><path stroke="#000" d="m235.63-766.55.33 10.59-6.86-8.07z"/></g><g class="edge" transform="matrix(.85 0 0 .85 122.4 780.3)"><path fill="none" stroke="#000" d="M236.34-720.41c-4.15 11.16-9.59 25.81-13.72 36.94"/><path stroke="#000" d="m225.78-681.92-6.77 8.15.2-10.59z"/></g><g class="node" transform="matrix(.85 0 0 .85 122.4 780.3)"><ellipse cx="269.5" cy="-666" fill="none" stroke="#000" rx="27" ry="18"/><text x="269.5" y="-662.3" font-family="Times,serif" font-size="14" text-anchor="middle">‘l’</text></g><g class="edge" transform="matrix(.85 0 0 .85 122.4 780.3)"><path fill="none" stroke="#000" d="m248.9-720.41 10.43 27.06"/><path stroke="#000" d="m262.63-694.55.33 10.59-6.86-8.07z"/></g><g class="edge" transform="matrix(.85 0 0 .85 122.4 780.3)"><path fill="none" stroke="#000" d="M263.1-648.41c-4.35 11.27-10.07 26.11-14.38 37.29"/><path stroke="#000" d="m251.97-609.84-6.86 8.07.33-10.59z"/></g><g class="node" transform="matrix(.85 0 0 .85 122.4 780.3)"><ellipse cx="295.5" cy="-594" fill="none" stroke="#000" rx="27" ry="18"/><text x="295.5" y="-590.3" font-family="Times,serif" font-size="14" text-anchor="middle">‘l’</text></g><g class="edge" transform="matrix(.85 0 0 .85 122.4 780.3)"><path fill="none" stroke="#000" d="M275.66-648.41c3 8.07 6.68 17.98 10.05 27.06"/><path stroke="#000" d="m289-622.55.2 10.59-6.76-8.15z"/></g><g class="edge" transform="matrix(.85 0 0 .85 122.4 780.3)"><path fill="none" stroke="#000" d="M289.34-576.41c-4.15 11.16-9.59 25.81-13.72 36.94"/><path stroke="#000" d="m278.78-537.92-6.77 8.15.2-10.59z"/></g><g class="node" transform="matrix(.85 0 0 .85 122.4 780.3)"><ellipse cx="322.5" cy="-522" fill="none" stroke="#000" rx="27" ry="18"/><text x="322.5" y="-518.3" font-family="Times,serif" font-size="14" text-anchor="middle">‘o’</text></g><g class="edge" transform="matrix(.85 0 0 .85 122.4 780.3)"><path fill="none" stroke="#000" d="m301.9-576.41 10.43 27.06"/><path stroke="#000" d="m315.63-550.55.33 10.59-6.86-8.07z"/></g><g class="edge" transform="matrix(.85 0 0 .85 122.4 780.3)"><path fill="none" stroke="#000" d="M316.34-504.41c-4.15 11.16-9.59 25.81-13.72 36.94"/><path stroke="#000" d="m305.78-465.92-6.77 8.15.2-10.59z"/></g><g class="node" transform="matrix(.85 0 0 .85 122.4 780.3)"><ellipse cx="349.5" cy="-450" fill="none" stroke="#000" rx="27" ry="18"/><text x="349.5" y="-446.3" font-family="Times,serif" font-size="14" text-anchor="middle">‘!’</text></g><g class="edge" transform="matrix(.85 0 0 .85 122.4 780.3)"><path fill="none" stroke="#000" d="m328.9-504.41 10.43 27.06"/><path stroke="#000" d="m342.63-478.55.33 10.59-6.86-8.07z"/></g><g class="node" transform="matrix(.85 0 0 .85 122.4 780.3)"><ellipse cx="60.5" cy="-378" fill="none" stroke="#000" rx="27" ry="18"/><text x="60.5" y="-374.3" font-family="Times,serif" font-size="14" text-anchor="middle">‘/’</text></g><g class="edge" transform="matrix(.85 0 0 .85 122.4 780.3)"><path fill="none" stroke="#000" d="M324.61-442.97c-51.54 12.48-170.04 41.18-229.19 55.51"/><path stroke="#000" d="m95.98-383.99-10.55-1.05 8.9-5.75z"/></g><g class="node" transform="matrix(.85 0 0 .85 122.4 780.3)"><ellipse cx="294.5" cy="-378" fill="none" stroke="#000" rx="27" ry="18"/><text x="294.5" y="-374.3" font-family="Times,serif" font-size="14" text-anchor="middle">‘ ’</text></g><g class="edge" transform="matrix(.85 0 0 .85 122.4 780.3)"><path fill="none" stroke="#000" d="M337.57-433.81c-7.28 9.26-16.73 21.29-24.92 31.72"/><path stroke="#000" d="m315.34-399.86-8.93 5.7 3.43-10.02z"/></g><g class="node" transform="matrix(.85 0 0 .85 122.4 780.3)"><text x="385.5" y="-374.3" font-family="Times,serif" font-size="14" text-anchor="middle">∅</text></g><g class="edge" transform="matrix(.85 0 0 .85 122.4 780.3)"><path fill="none" stroke="#000" d="M357.85-432.76c5.85 11.37 13.64 26.51 19.45 37.82"/><path stroke="#000" d="m380.52-396.33 1.46 10.49-7.68-7.29z"/></g><g class="edge" transform="matrix(.85 0 0 .85 122.4 780.3)"><path fill="none" stroke="#000" d="M48.74-361.46c-8.95 11.82-21.2 27.99-30.01 39.63"/><path stroke="#000" d="m21.35-319.49-8.83 5.86 3.24-10.08z"/></g><g class="node" transform="matrix(.85 0 0 .85 122.4 780.3)"><ellipse cx="132.5" cy="-306" fill="none" stroke="#000" rx="27" ry="18"/><text x="132.5" y="-302.3" font-family="Times,serif" font-size="14" text-anchor="middle">‘b’</text></g><g class="edge" transform="matrix(.85 0 0 .85 122.4 780.3)"><path fill="none" stroke="#000" d="M75.07-362.83c10.18 9.89 23.95 23.28 35.46 34.47"/><path stroke="#000" d="m112.97-330.87 4.73 9.49-9.61-4.47z"/></g><g class="edge" transform="matrix(.85 0 0 .85 122.4 780.3)"><path fill="none" stroke="#000" d="M288.34-360.41c-4.15 11.16-9.59 25.81-13.72 36.94"/><path stroke="#000" d="m277.78-321.92-6.77 8.15.2-10.59z"/></g><g class="node" transform="matrix(.85 0 0 .85 122.4 780.3)"><ellipse cx="339.5" cy="-306" fill="none" stroke="#000" rx="27" ry="18"/><text x="339.5" y="-302.3" font-family="Times,serif" font-size="14" text-anchor="middle">‘w’</text></g><g class="edge" transform="matrix(.85 0 0 .85 122.4 780.3)"><path fill="none" stroke="#000" d="M304.71-361.12c5.64 8.78 12.76 19.86 19.09 29.7"/><path stroke="#000" d="m326.87-333.13 2.46 10.31-8.35-6.52z"/></g><g class="edge" transform="matrix(.85 0 0 .85 122.4 780.3)"><path fill="none" stroke="#000" d="M333.34-288.41c-4.15 11.16-9.59 25.81-13.72 36.94"/><path stroke="#000" d="m322.78-249.92-6.77 8.15.2-10.59z"/></g><g class="node" transform="matrix(.85 0 0 .85 122.4 780.3)"><ellipse cx="385.5" cy="-234" fill="none" stroke="#000" rx="27" ry="18"/><text x="385.5" y="-230.3" font-family="Times,serif" font-size="14" text-anchor="middle">‘o’</text></g><g class="edge" transform="matrix(.85 0 0 .85 122.4 780.3)"><path fill="none" stroke="#000" d="M349.94-289.12c5.76 8.78 13.04 19.86 19.52 29.7"/><path stroke="#000" d="m372.54-261.1 2.56 10.28-8.41-6.44z"/></g><g class="edge" transform="matrix(.85 0 0 .85 122.4 780.3)"><path fill="none" stroke="#000" d="M379.1-216.41c-4.35 11.27-10.07 26.11-14.38 37.29"/><path stroke="#000" d="m367.97-177.84-6.86 8.07.33-10.59z"/></g><g class="node" transform="matrix(.85 0 0 .85 122.4 780.3)"><ellipse cx="411.5" cy="-162" fill="none" stroke="#000" rx="27" ry="18"/><text x="411.5" y="-158.3" font-family="Times,serif" font-size="14" text-anchor="middle">‘r’</text></g><g class="edge" transform="matrix(.85 0 0 .85 122.4 780.3)"><path fill="none" stroke="#000" d="M391.66-216.41c3 8.07 6.68 17.98 10.05 27.06"/><path stroke="#000" d="m405-190.55.2 10.59-6.76-8.15z"/></g><g class="edge" transform="matrix(.85 0 0 .85 122.4 780.3)"><path fill="none" stroke="#000" d="M405.1-144.41c-4.35 11.27-10.07 26.11-14.38 37.29"/><path stroke="#000" d="m393.97-105.84-6.86 8.07.33-10.59z"/></g><g class="node" transform="matrix(.85 0 0 .85 122.4 780.3)"><ellipse cx="437.5" cy="-90" fill="none" stroke="#000" rx="27" ry="18"/><text x="437.5" y="-86.3" font-family="Times,serif" font-size="14" text-anchor="middle">‘l’</text></g><g class="edge" transform="matrix(.85 0 0 .85 122.4 780.3)"><path fill="none" stroke="#000" d="M417.66-144.41c3 8.07 6.68 17.98 10.05 27.06"/><path stroke="#000" d="m431-118.55.2 10.59-6.76-8.15z"/></g><g class="edge" transform="matrix(.85 0 0 .85 122.4 780.3)"><path fill="none" stroke="#000" d="M431.1-72.41c-4.35 11.27-10.07 26.11-14.38 37.29"/><path stroke="#000" d="m419.97-33.84-6.86 8.07.33-10.59z"/></g><g class="node" transform="matrix(.85 0 0 .85 122.4 780.3)"><ellipse cx="463.5" cy="-18" fill="none" stroke="#000" rx="27" ry="18"/><text x="463.5" y="-14.3" font-family="Times,serif" font-size="14" text-anchor="middle">‘d’</text></g><g class="edge" transform="matrix(.85 0 0 .85 122.4 780.3)"><path fill="none" stroke="#000" d="M443.66-72.41c3 8.07 6.68 17.98 10.05 27.06"/><path stroke="#000" d="m457-46.55.2 10.59-6.76-8.15z"/></g><g class="node" transform="matrix(.85 0 0 .85 122.4 780.3)"><ellipse cx="69.5" cy="-234" fill="none" stroke="#000" rx="27" ry="18"/><text x="69.5" y="-230.3" font-family="Times,serif" font-size="14" text-anchor="middle">‘g’</text></g><g class="edge" transform="matrix(.85 0 0 .85 122.4 780.3)"><path fill="none" stroke="#000" d="M119.14-290.15c-8.52 9.46-19.73 21.91-29.33 32.59"/><path stroke="#000" d="m92.13-254.92-9.29 5.1 4.09-9.78z"/></g><g class="node" transform="matrix(.85 0 0 .85 122.4 780.3)"><ellipse cx="195.5" cy="-234" fill="none" stroke="#000" rx="27" ry="18"/><text x="195.5" y="-230.3" font-family="Times,serif" font-size="14" text-anchor="middle">‘y’</text></g><g class="edge" transform="matrix(.85 0 0 .85 122.4 780.3)"><path fill="none" stroke="#000" d="M145.86-290.15c8.52 9.46 19.73 21.91 29.33 32.59"/><path stroke="#000" d="m178.07-259.6 4.09 9.78-9.29-5.1z"/></g><g class="edge" transform="matrix(.85 0 0 .85 122.4 780.3)"><path fill="none" stroke="#000" d="M62.63-216.41c-4.67 11.27-10.82 26.11-15.45 37.29"/><path stroke="#000" d="m50.36-177.67-7.06 7.9.6-10.58z"/></g><g class="node" transform="matrix(.85 0 0 .85 122.4 780.3)"><ellipse cx="93.5" cy="-162" fill="none" stroke="#000" rx="27" ry="18"/><text x="93.5" y="-158.3" font-family="Times,serif" font-size="14" text-anchor="middle">‘o’</text></g><g class="edge" transform="matrix(.85 0 0 .85 122.4 780.3)"><path fill="none" stroke="#000" d="M75.31-216.05c2.74 7.99 6.08 17.72 9.14 26.65"/><path stroke="#000" d="m87.81-190.38-.07 10.59-6.55-8.32z"/></g><g class="edge" transform="matrix(.85 0 0 .85 122.4 780.3)"><path fill="none" stroke="#000" d="M189.34-216.41c-4.15 11.16-9.59 25.81-13.72 36.94"/><path stroke="#000" d="m178.78-177.92-6.77 8.15.2-10.59z"/></g><g class="node" transform="matrix(.85 0 0 .85 122.4 780.3)"><ellipse cx="240.5" cy="-162" fill="none" stroke="#000" rx="27" ry="18"/><text x="240.5" y="-158.3" font-family="Times,serif" font-size="14" text-anchor="middle">‘e’</text></g><g class="edge" transform="matrix(.85 0 0 .85 122.4 780.3)"><path fill="none" stroke="#000" d="M205.71-217.12c5.64 8.78 12.76 19.86 19.09 29.7"/><path stroke="#000" d="m227.87-189.13 2.46 10.31-8.35-6.52z"/></g><g class="edge" transform="matrix(.85 0 0 .85 122.4 780.3)"><path fill="none" stroke="#000" d="M87.34-144.41c-4.15 11.16-9.59 25.81-13.72 36.94"/><path stroke="#000" d="m76.78-105.92-6.77 8.15.2-10.59z"/></g><g class="node" transform="matrix(.85 0 0 .85 122.4 780.3)"><ellipse cx="120.5" cy="-90" fill="none" stroke="#000" rx="27" ry="18"/><text x="120.5" y="-86.3" font-family="Times,serif" font-size="14" text-anchor="middle">‘o’</text></g><g class="edge" transform="matrix(.85 0 0 .85 122.4 780.3)"><path fill="none" stroke="#000" d="m99.9-144.41 10.43 27.06"/><path stroke="#000" d="m113.63-118.55.33 10.59-6.86-8.07z"/></g><g class="edge" transform="matrix(.85 0 0 .85 122.4 780.3)"><path fill="none" stroke="#000" d="M114.34-72.41c-4.15 11.16-9.59 25.81-13.72 36.94"/><path stroke="#000" d="m103.78-33.92-6.77 8.15.2-10.59z"/></g><g class="node" transform="matrix(.85 0 0 .85 122.4 780.3)"><ellipse cx="147.5" cy="-18" fill="none" stroke="#000" rx="27" ry="18"/><text x="147.5" y="-14.3" font-family="Times,serif" font-size="14" text-anchor="middle">‘d’</text></g><g class="edge" transform="matrix(.85 0 0 .85 122.4 780.3)"><path fill="none" stroke="#000" d="m126.9-72.41 10.43 27.06"/><path stroke="#000" d="m140.63-46.55.33 10.59-6.86-8.07z"/></g></g></svg>